<?xml version="1.0" standalone="no"?>
<!DOCTYPE svg PUBLIC "-//W3C//DTD SVG 20010904//EN"
 "http://www.w3.org/TR/2001/REC-SVG-20010904/DTD/svg10.dtd">
<svg version="1.0" xmlns="http://www.w3.org/2000/svg"
 width="260.000000pt" height="260.000000pt" viewBox="0 0 260.000000 260.000000"
 preserveAspectRatio="xMidYMid meet">
<metadata>
Created by potrace 1.11, written by Peter Selinger 2001-2013
</metadata>
<g transform="translate(0.000000,260.000000) scale(0.100000,-0.100000)"
fill="#000000" stroke="none">
<path d="M105 2588 c-3 -7 -4 -591 -3 -1298 l3 -1285 1195 0 1195 0 0 1295 0
1295 -1193 3 c-949 2 -1194 0 -1197 -10z m1935 -148 c94 -56 133 -124 133
-230 0 -106 -39 -174 -126 -222 l-42 -23 -690 0 c-646 0 -692 1 -723 18 -84
46 -131 116 -139 207 -11 120 57 221 177 263 8 3 323 5 700 4 589 -2 689 -4
710 -17z m-1682 -198 l3 -73 -73 3 -73 3 -3 59 c-4 86 -3 87 75 84 l68 -3 3
-73z m2057 55 c4 -13 5 -46 3 -73 l-3 -49 -75 0 -75 0 -3 58 c-4 78 5 87 84
87 58 0 64 -2 69 -23z m-2055 -377 l0 -70 -75 0 -75 0 0 63 c0 35 3 67 7 70 3
4 37 7 75 7 l68 0 0 -70z m2058 -2 l3 -68 -81 0 -80 0 0 63 c0 35 3 67 7 71 4
4 39 5 78 4 l70 -3 3 -67z m-379 -103 c55 -31 81 -57 108 -103 22 -36 26 -56
26 -121 0 -86 -15 -124 -67 -179 -66 -70 -25 -67 -796 -67 -635 0 -698 1 -726
17 -175 96 -176 354 -2 449 12 7 43 16 68 20 25 4 340 6 700 5 635 -1 656 -2
689 -21z m-1681 -213 l3 -73 -73 3 -73 3 -3 64 c-2 45 1 67 10 73 7 4 40 7 73
6 l60 -3 3 -73z m2050 69 c9 -5 12 -27 10 -72 l-3 -64 -69 -3 c-49 -2 -72 1
-77 10 -13 20 -11 112 3 126 14 14 116 16 136 3z m-2050 -388 l-3 -68 -49 -3
c-90 -6 -96 -1 -96 73 l0 65 75 0 76 0 -3 -67z m2062 3 c0 -73 -3 -76 -80 -76
-77 0 -80 3 -80 76 l0 64 80 0 80 0 0 -64z m-384 -75 c169 -77 190 -332 35
-434 -70 -47 -102 -49 -791 -45 -619 3 -647 4 -685 23 -55 27 -82 52 -113 105
-23 39 -27 56 -26 125 0 64 5 88 22 118 29 50 67 85 117 108 38 17 81 19 720
19 641 0 682 -2 721 -19z m-1676 -231 l0 -70 -75 0 -75 0 0 63 c0 35 3 67 7
70 3 4 37 7 75 7 l68 0 0 -70z m2055 0 l0 -65 -75 0 -75 0 -3 54 c-5 81 -3 82
80 79 l73 -3 0 -65z m-2055 -330 l0 -71 -72 3 -73 3 -3 68 -3 67 76 0 75 0 0
-70z m2055 0 l0 -65 -75 0 -75 0 -3 54 c-5 81 -3 82 80 79 l73 -3 0 -65z
m-393 -37 c6 -7 18 -13 26 -13 20 0 85 -67 107 -110 26 -50 24 -172 -3 -227
-28 -54 -93 -108 -147 -122 -62 -16 -1319 -15 -1381 0 -68 17 -137 84 -159
155 -20 65 -16 143 10 193 23 46 85 111 104 111 9 0 21 4 27 9 5 5 18 11 29
14 11 3 325 4 697 3 527 -1 680 -4 690 -13z m-1667 -238 l0 -70 -70 0 -70 0
-3 59 c-4 86 -3 87 75 84 l68 -3 0 -70z m2060 0 l0 -70 -63 -3 c-38 -2 -69 2
-78 9 -18 14 -19 110 -2 127 8 8 36 12 78 10 l65 -3 0 -70z"/>
</g>
</svg>
